<?xml version="1.0" standalone="no"?>
<!DOCTYPE svg PUBLIC "-//W3C//DTD SVG 20010904//EN"
 "http://www.w3.org/TR/2001/REC-SVG-20010904/DTD/svg10.dtd">
<svg version="1.0" xmlns="http://www.w3.org/2000/svg"
 width="153.000000pt" height="153.000000pt" viewBox="0 0 153.000000 153.000000"
 preserveAspectRatio="xMidYMid meet">
<metadata>
Created by potrace 1.14, written by Peter Selinger 2001-2017
</metadata>
<g transform="translate(0.000000,153.000000) scale(0.100000,-0.100000)"
fill="#000000" stroke="none">
<path d="M150 765 l0 -765 615 0 615 0 0 765 0 765 -615 0 -615 0 0 -765z
m761 567 c121 -40 181 -101 196 -202 17 -109 -20 -222 -87 -272 -17 -12 -30
-24 -30 -28 0 -3 16 -14 36 -25 93 -50 153 -166 140 -273 -18 -154 -122 -253
-296 -281 -36 -6 -154 -11 -262 -11 l-198 0 0 561 0 561 218 -4 c186 -4 226
-8 283 -26z"/>
<path d="M630 1020 l0 -120 83 0 c97 0 140 20 163 75 18 44 18 69 -1 105 -24
46 -62 60 -160 60 l-85 0 0 -120z"/>
<path d="M630 571 l0 -121 100 0 c112 0 155 12 188 55 26 33 29 91 6 123 -29
41 -72 55 -186 60 l-108 5 0 -122z"/>
</g>
</svg>
