<?xml version="1.0" standalone="no"?>
<!DOCTYPE svg PUBLIC "-//W3C//DTD SVG 20010904//EN"
 "http://www.w3.org/TR/2001/REC-SVG-20010904/DTD/svg10.dtd">
<svg version="1.0" xmlns="http://www.w3.org/2000/svg"
 width="80.000000pt" height="80.000000pt" viewBox="0 0 80.000000 80.000000"
 preserveAspectRatio="xMidYMid meet">
<metadata>
Created by potrace 1.14, written by Peter Selinger 2001-2017
</metadata>
<g transform="translate(0.000000,80.000000) scale(0.100000,-0.100000)"
fill="#000000" stroke="none">
<path d="M0 400 l0 -400 400 0 400 0 0 400 0 400 -400 0 -400 0 0 -400z m424
301 l25 -39 -106 -184 c-58 -100 -121 -211 -140 -246 l-35 -62 25 0 c13 0 29
6 35 12 9 12 92 157 190 336 25 45 50 82 56 82 6 0 31 -35 55 -78 24 -42 89
-152 143 -244 54 -92 98 -174 98 -183 0 -13 -27 -15 -205 -15 -225 0 -222 -1
-190 60 l16 30 115 0 c89 0 115 3 112 13 -7 27 -134 237 -143 237 -5 0 -48
-70 -95 -154 -46 -85 -89 -161 -95 -169 -13 -18 -256 -29 -262 -11 -2 5 35 77
83 160 47 82 99 173 116 203 16 29 42 74 57 100 15 25 46 79 70 119 23 39 44
72 46 72 3 0 16 -18 29 -39z"/>
</g>
</svg>
